<mxfile host="app.diagrams.net" agent="Mozilla/5.0 (Windows NT 10.0; Win64; x64; rv:136.0) Gecko/20100101 Firefox/136.0" version="26.1.0">
  <diagram name="Страница — 1" id="dnz3Q_9oZZ1HmRW2v9se">
    <mxGraphModel dx="1050" dy="566" grid="1" gridSize="10" guides="1" tooltips="1" connect="1" arrows="1" fold="1" page="1" pageScale="1" pageWidth="827" pageHeight="1169" math="0" shadow="0">
      <root>
        <mxCell id="0" />
        <mxCell id="1" parent="0" />
        <mxCell id="NjhjvcJ3AUgm__JpomM2-1" value="Администратор" style="shape=umlActor;verticalLabelPosition=bottom;verticalAlign=top;html=1;outlineConnect=0;" vertex="1" parent="1">
          <mxGeometry x="160" y="320" width="30" height="60" as="geometry" />
        </mxCell>
        <mxCell id="NjhjvcJ3AUgm__JpomM2-3" value="" style="rounded=0;whiteSpace=wrap;html=1;" vertex="1" parent="1">
          <mxGeometry x="240" y="110" width="430" height="500" as="geometry" />
        </mxCell>
        <mxCell id="NjhjvcJ3AUgm__JpomM2-4" value="Администрирование пользователей" style="ellipse;whiteSpace=wrap;html=1;" vertex="1" parent="1">
          <mxGeometry x="300" y="120" width="120" height="70" as="geometry" />
        </mxCell>
        <mxCell id="NjhjvcJ3AUgm__JpomM2-5" value="Блокировать пользователей" style="ellipse;whiteSpace=wrap;html=1;" vertex="1" parent="1">
          <mxGeometry x="510" y="132.5" width="100" height="45" as="geometry" />
        </mxCell>
        <mxCell id="NjhjvcJ3AUgm__JpomM2-6" value="" style="endArrow=none;html=1;rounded=0;" edge="1" parent="1" source="NjhjvcJ3AUgm__JpomM2-1" target="NjhjvcJ3AUgm__JpomM2-4">
          <mxGeometry width="50" height="50" relative="1" as="geometry">
            <mxPoint x="390" y="320" as="sourcePoint" />
            <mxPoint x="440" y="270" as="targetPoint" />
          </mxGeometry>
        </mxCell>
        <mxCell id="NjhjvcJ3AUgm__JpomM2-7" value="Exdend" style="endArrow=open;endSize=12;dashed=1;html=1;rounded=0;" edge="1" parent="1" source="NjhjvcJ3AUgm__JpomM2-5" target="NjhjvcJ3AUgm__JpomM2-4">
          <mxGeometry width="160" relative="1" as="geometry">
            <mxPoint x="330" y="290" as="sourcePoint" />
            <mxPoint x="490" y="290" as="targetPoint" />
          </mxGeometry>
        </mxCell>
        <mxCell id="NjhjvcJ3AUgm__JpomM2-8" value="Администрирование транспорта" style="ellipse;whiteSpace=wrap;html=1;" vertex="1" parent="1">
          <mxGeometry x="295" y="220" width="125" height="80" as="geometry" />
        </mxCell>
        <mxCell id="NjhjvcJ3AUgm__JpomM2-9" value="" style="endArrow=none;html=1;rounded=0;" edge="1" parent="1" source="NjhjvcJ3AUgm__JpomM2-8" target="NjhjvcJ3AUgm__JpomM2-1">
          <mxGeometry width="50" height="50" relative="1" as="geometry">
            <mxPoint x="390" y="320" as="sourcePoint" />
            <mxPoint x="440" y="270" as="targetPoint" />
          </mxGeometry>
        </mxCell>
        <mxCell id="NjhjvcJ3AUgm__JpomM2-10" value="Обновление данных о транспорте" style="ellipse;whiteSpace=wrap;html=1;" vertex="1" parent="1">
          <mxGeometry x="517.5" y="210" width="110" height="60" as="geometry" />
        </mxCell>
        <mxCell id="NjhjvcJ3AUgm__JpomM2-11" value="Изменение данных о транспорте" style="ellipse;whiteSpace=wrap;html=1;" vertex="1" parent="1">
          <mxGeometry x="520" y="280" width="105" height="60" as="geometry" />
        </mxCell>
        <mxCell id="NjhjvcJ3AUgm__JpomM2-12" value="Exdend" style="endArrow=open;endSize=12;dashed=1;html=1;rounded=0;" edge="1" parent="1" source="NjhjvcJ3AUgm__JpomM2-10" target="NjhjvcJ3AUgm__JpomM2-8">
          <mxGeometry width="160" relative="1" as="geometry">
            <mxPoint x="520" y="165" as="sourcePoint" />
            <mxPoint x="430" y="165" as="targetPoint" />
          </mxGeometry>
        </mxCell>
        <mxCell id="NjhjvcJ3AUgm__JpomM2-13" value="Exdend" style="endArrow=open;endSize=12;dashed=1;html=1;rounded=0;" edge="1" parent="1" source="NjhjvcJ3AUgm__JpomM2-11" target="NjhjvcJ3AUgm__JpomM2-8">
          <mxGeometry width="160" relative="1" as="geometry">
            <mxPoint x="530" y="175" as="sourcePoint" />
            <mxPoint x="440" y="175" as="targetPoint" />
          </mxGeometry>
        </mxCell>
        <mxCell id="NjhjvcJ3AUgm__JpomM2-14" value="Администрирование маршрутов" style="ellipse;whiteSpace=wrap;html=1;" vertex="1" parent="1">
          <mxGeometry x="297.5" y="350" width="120" height="80" as="geometry" />
        </mxCell>
        <mxCell id="NjhjvcJ3AUgm__JpomM2-15" value="Обновление данных о маршрутах" style="ellipse;whiteSpace=wrap;html=1;" vertex="1" parent="1">
          <mxGeometry x="517.5" y="360" width="107.5" height="70" as="geometry" />
        </mxCell>
        <mxCell id="NjhjvcJ3AUgm__JpomM2-16" value="Изменение данных о маршрутах" style="ellipse;whiteSpace=wrap;html=1;" vertex="1" parent="1">
          <mxGeometry x="517.5" y="450" width="100" height="60" as="geometry" />
        </mxCell>
        <mxCell id="NjhjvcJ3AUgm__JpomM2-17" value="" style="endArrow=none;html=1;rounded=0;" edge="1" parent="1" source="NjhjvcJ3AUgm__JpomM2-14" target="NjhjvcJ3AUgm__JpomM2-1">
          <mxGeometry width="50" height="50" relative="1" as="geometry">
            <mxPoint x="390" y="410" as="sourcePoint" />
            <mxPoint x="440" y="360" as="targetPoint" />
          </mxGeometry>
        </mxCell>
        <mxCell id="NjhjvcJ3AUgm__JpomM2-18" value="Exdend" style="endArrow=open;endSize=12;dashed=1;html=1;rounded=0;" edge="1" parent="1" source="NjhjvcJ3AUgm__JpomM2-15" target="NjhjvcJ3AUgm__JpomM2-14">
          <mxGeometry width="160" relative="1" as="geometry">
            <mxPoint x="519" y="339" as="sourcePoint" />
            <mxPoint x="421" y="301" as="targetPoint" />
          </mxGeometry>
        </mxCell>
        <mxCell id="NjhjvcJ3AUgm__JpomM2-19" value="Exdend" style="endArrow=open;endSize=12;dashed=1;html=1;rounded=0;" edge="1" parent="1" source="NjhjvcJ3AUgm__JpomM2-16" target="NjhjvcJ3AUgm__JpomM2-14">
          <mxGeometry width="160" relative="1" as="geometry">
            <mxPoint x="529" y="349" as="sourcePoint" />
            <mxPoint x="431" y="311" as="targetPoint" />
          </mxGeometry>
        </mxCell>
        <mxCell id="NjhjvcJ3AUgm__JpomM2-20" value="Сбор статистики" style="ellipse;whiteSpace=wrap;html=1;" vertex="1" parent="1">
          <mxGeometry x="295" y="480" width="120" height="80" as="geometry" />
        </mxCell>
        <mxCell id="NjhjvcJ3AUgm__JpomM2-21" value="" style="endArrow=none;html=1;rounded=0;" edge="1" parent="1" source="NjhjvcJ3AUgm__JpomM2-1" target="NjhjvcJ3AUgm__JpomM2-20">
          <mxGeometry width="50" height="50" relative="1" as="geometry">
            <mxPoint x="390" y="410" as="sourcePoint" />
            <mxPoint x="440" y="360" as="targetPoint" />
          </mxGeometry>
        </mxCell>
      </root>
    </mxGraphModel>
  </diagram>
</mxfile>
